<svg xmlns="http://www.w3.org/2000/svg" xmlns:xlink="http://www.w3.org/1999/xlink" id="Layer_1" x="0px" y="0px" width="538.623px" height="124.753px" viewBox="0 0 538.623 124.753" xml:space="preserve"><g>	<path fill="#204289" d="M356.439,8.062v2.39h1.63c0.181,0,0.345-0.03,0.494-0.092c0.146-0.058,0.279-0.143,0.392-0.248  c0.115-0.109,0.204-0.232,0.269-0.375s0.096-0.299,0.096-0.47c0-0.163-0.031-0.316-0.096-0.463  c-0.064-0.146-0.153-0.276-0.262-0.384c-0.109-0.109-0.242-0.198-0.396-0.262c-0.152-0.065-0.316-0.096-0.497-0.096H356.439z   M357.821,12.15c-0.055,0.007-0.112,0.01-0.17,0.01s-0.112,0-0.17,0h-1.042v2.744c0,0.177-0.089,0.266-0.266,0.266h-1.512  c-0.078,0-0.136-0.027-0.17-0.078c-0.037-0.055-0.055-0.116-0.055-0.188V6.734c0-0.058,0.018-0.109,0.055-0.157  c0.034-0.044,0.092-0.068,0.17-0.068h3.925c0.405,0,0.773,0.078,1.106,0.238c0.334,0.16,0.62,0.371,0.861,0.633  c0.242,0.262,0.429,0.565,0.565,0.906c0.133,0.34,0.201,0.694,0.201,1.065c0,0.262-0.041,0.518-0.123,0.766  c-0.082,0.245-0.197,0.479-0.344,0.701c-0.149,0.218-0.327,0.419-0.527,0.596c-0.201,0.177-0.426,0.327-0.664,0.446l1.487,2.894  c0.034,0.071,0.044,0.156,0.027,0.252c-0.017,0.095-0.099,0.143-0.238,0.143h-1.331c-0.071,0-0.143-0.017-0.211-0.055  c-0.071-0.034-0.126-0.088-0.16-0.16L357.821,12.15z M351.17,10.945c0,0.596,0.071,1.171,0.218,1.719  c0.146,0.552,0.351,1.065,0.619,1.549c0.266,0.483,0.586,0.919,0.964,1.311c0.374,0.388,0.797,0.725,1.26,1.011  c0.466,0.282,0.967,0.5,1.508,0.653c0.538,0.153,1.106,0.229,1.702,0.229s1.171-0.075,1.726-0.229  c0.552-0.153,1.072-0.371,1.552-0.653c0.483-0.286,0.923-0.623,1.321-1.011c0.398-0.392,0.739-0.827,1.021-1.311  c0.286-0.483,0.504-0.997,0.66-1.549c0.156-0.548,0.234-1.124,0.234-1.719c0-0.963-0.173-1.841-0.517-2.631  c-0.344-0.793-0.811-1.47-1.399-2.039c-0.589-0.569-1.28-1.008-2.069-1.318c-0.794-0.313-1.635-0.47-2.529-0.47  c-0.896,0-1.723,0.167-2.485,0.504s-1.426,0.8-1.984,1.386c-0.562,0.585-1.001,1.27-1.321,2.052  C351.33,9.212,351.17,10.053,351.17,10.945z M349.025,10.877c0-0.79,0.103-1.549,0.31-2.284c0.204-0.732,0.49-1.416,0.861-2.053  c0.368-0.633,0.813-1.212,1.338-1.732c0.527-0.521,1.104-0.967,1.736-1.341c0.629-0.371,1.311-0.66,2.042-0.861  c0.729-0.201,1.487-0.303,2.274-0.303c0.796,0,1.559,0.103,2.287,0.303c0.732,0.201,1.413,0.49,2.049,0.861  c0.634,0.375,1.212,0.82,1.733,1.341c0.521,0.521,0.967,1.1,1.341,1.732c0.371,0.637,0.66,1.321,0.861,2.053  c0.201,0.735,0.303,1.495,0.303,2.284c0,0.786-0.102,1.545-0.303,2.274c-0.201,0.732-0.49,1.413-0.861,2.049  c-0.374,0.633-0.82,1.212-1.341,1.732c-0.521,0.521-1.1,0.967-1.733,1.341c-0.636,0.371-1.316,0.66-2.049,0.861  c-0.729,0.201-1.491,0.303-2.287,0.303c-0.787,0-1.546-0.102-2.274-0.303c-0.731-0.201-1.413-0.49-2.042-0.861  c-0.633-0.375-1.209-0.82-1.736-1.341c-0.524-0.521-0.97-1.1-1.338-1.732c-0.371-0.637-0.657-1.317-0.861-2.049  C349.128,12.422,349.025,11.663,349.025,10.877z"></path>	<path fill="#204289" d="M280.148,64.457c0.435,1.221,0.07,1.838-1.095,1.838h-13.599c-0.617,0-1.137-0.14-1.572-0.435  c-0.386-0.254-0.668-0.631-0.847-1.142l-7.303-29.463l-0.056,0.014l-2.109-8.451l-1.361-7.62l-1.403,7.62l-3.986,16.195h5.75  l3.726,15.03h-13.208l-1.572,6.414c-0.183,0.646-0.491,1.108-0.926,1.403c-0.436,0.295-0.954,0.435-1.53,0.435h-13.641  c-1.165,0-1.543-0.617-1.094-1.838l18.552-58.814c0.407-1.249,1.221-1.881,2.456-1.881h13.809c1.235,0,2.049,0.632,2.456,1.881  L280.148,64.457z M2.657,5.614c0-1.249,0.618-1.88,1.839-1.88h14.16v15.409V43.27v7.617h7.115c3.354,0,5.95-0.969,7.761-2.905  c1.81-1.937,2.722-4.589,2.722-7.957V29.822c0-3.368-0.898-5.978-2.68-7.817c-1.783-1.852-4.309-2.806-7.592-2.863h-2.387V3.733  h2.892c3.775,0.028,7.241,0.674,10.399,1.937c3.158,1.249,5.894,3.018,8.181,5.277c2.302,2.273,4.098,4.968,5.403,8.097  c1.306,3.129,1.951,6.582,1.951,10.356v11.227c0,3.803-0.646,7.283-1.951,10.427c-1.305,3.143-3.115,5.837-5.445,8.111  c-2.329,2.273-5.08,4.028-8.266,5.263c-3.199,1.249-6.694,1.866-10.497,1.866H4.496c-1.221,0-1.839-0.617-1.839-1.838V5.614z   M75.861,42.368c0,1.558,0.239,2.975,0.729,4.266c0.478,1.277,1.165,2.386,2.049,3.312c0.87,0.912,1.937,1.642,3.185,2.175  c1.25,0.519,2.639,0.786,4.168,0.786c1.516,0,2.905-0.267,4.125-0.786c1.235-0.533,2.302-1.263,3.171-2.175  c0.884-0.926,1.572-2.035,2.049-3.312c0.491-1.291,0.729-2.708,0.729-4.266V27.745c0-1.516-0.238-2.933-0.701-4.21  c-0.478-1.291-1.151-2.399-2.035-3.34c-0.87-0.94-1.937-1.67-3.186-2.203c-1.249-0.52-2.638-0.786-4.154-0.786  c-1.53,0-2.919,0.267-4.168,0.786c-1.249,0.533-2.315,1.263-3.185,2.203c-0.884,0.94-1.572,2.049-2.049,3.34  c-0.491,1.277-0.729,2.694-0.729,4.21V42.368z M59.695,26.692c0-3.621,0.674-6.933,2.021-9.908c1.347-2.989,3.2-5.557,5.557-7.705  c2.344-2.147,5.136-3.817,8.336-4.996c3.2-1.193,6.652-1.783,10.329-1.783c3.691,0,7.143,0.589,10.343,1.783  c3.199,1.179,5.992,2.849,8.364,4.996c2.372,2.147,4.224,4.729,5.571,7.719c1.347,3.003,2.021,6.301,2.021,9.894v16.812  c0,3.592-0.674,6.89-2.021,9.865c-1.347,2.989-3.2,5.543-5.571,7.676c-2.372,2.147-5.15,3.803-8.336,4.982  c-3.199,1.193-6.638,1.782-10.314,1.782c-3.719,0-7.185-0.589-10.385-1.782c-3.2-1.179-5.992-2.834-8.336-4.982  c-2.357-2.133-4.21-4.687-5.557-7.676c-1.347-2.975-2.021-6.273-2.021-9.865V26.692z M138.891,19.142v12.097h7.761  c0.786,0,1.501-0.126,2.147-0.407c0.632-0.281,1.179-0.66,1.642-1.137c0.449-0.491,0.8-1.039,1.039-1.67  c0.252-0.631,0.379-1.291,0.379-1.993v-1.712c0-0.702-0.126-1.375-0.379-1.993c-0.239-0.631-0.59-1.178-1.039-1.656  c-0.463-0.463-1.01-0.842-1.642-1.108c-0.646-0.281-1.361-0.421-2.147-0.421H138.891z M123.061,5.614  c0-1.249,0.618-1.88,1.838-1.88h23.478c2.807,0,5.403,0.491,7.803,1.488c2.399,0.996,4.477,2.344,6.231,4.042  c1.754,1.698,3.129,3.663,4.125,5.922c0.997,2.245,1.488,4.617,1.488,7.101v4.351c0,1.571-0.239,3.144-0.716,4.715  c-0.491,1.558-1.151,3.045-1.993,4.448c-0.856,1.403-1.852,2.723-3.003,3.958c-1.165,1.221-2.414,2.301-3.761,3.242l2.288,3.466  l8.055,17.991c0.183,0.406,0.21,0.813,0.07,1.221c-0.126,0.407-0.505,0.617-1.108,0.617h-15.184c-0.576,0-1.01-0.126-1.263-0.379  c-0.267-0.238-0.533-0.701-0.786-1.375l-7.186-18.244h-4.547v18.16c0,0.604-0.112,1.066-0.351,1.375s-0.66,0.463-1.277,0.463  h-12.35c-1.235,0-1.853-0.617-1.853-1.838V5.614z M176.646,55.11c-0.463-0.884-0.744-1.656-0.856-2.33  c-0.098-0.673,0.281-1.207,1.123-1.585l9.824-5.347c0.505-0.239,0.982-0.253,1.445-0.07c0.477,0.196,0.912,0.673,1.319,1.432  c0.379,0.701,0.898,1.389,1.558,2.062c0.66,0.674,1.403,1.277,2.259,1.811c0.842,0.547,1.754,0.982,2.723,1.319  c0.954,0.337,1.937,0.505,2.933,0.505c1.866,0,3.396-0.365,4.561-1.081s1.754-1.769,1.754-3.171c0-0.94-0.295-1.769-0.898-2.484  c-0.604-0.716-1.488-1.417-2.652-2.119c-1.165-0.702-2.625-1.446-4.337-2.245c-1.726-0.786-3.705-1.74-5.922-2.849  c-2.723-1.305-4.954-2.68-6.708-4.098s-3.144-2.891-4.154-4.421c-1.01-1.543-1.712-3.157-2.104-4.855  c-0.393-1.698-0.59-3.494-0.59-5.389c0-2.639,0.52-5.038,1.558-7.241c1.038-2.189,2.484-4.07,4.35-5.656  c1.881-1.572,4.112-2.807,6.708-3.677c2.596-0.884,5.459-1.319,8.588-1.319c1.993,0,4,0.183,6.021,0.547  c2.007,0.365,3.958,0.997,5.824,1.867c1.867,0.884,3.635,2.049,5.291,3.522c1.642,1.459,3.101,3.298,4.364,5.487  c0.491,0.884,0.772,1.684,0.828,2.386s-0.309,1.207-1.095,1.53l-8.603,4.294c-0.73,0.322-1.347,0.421-1.853,0.294  c-0.519-0.14-1.053-0.575-1.6-1.347c-0.884-1.221-2.035-2.147-3.452-2.75c-1.417-0.618-2.961-0.926-4.631-0.926  c-0.87,0-1.684,0.07-2.428,0.196c-0.744,0.126-1.389,0.337-1.922,0.618c-0.547,0.281-0.982,0.631-1.306,1.066  c-0.322,0.449-0.477,0.955-0.477,1.544c0,0.491,0.099,0.968,0.309,1.417c0.196,0.463,0.575,0.926,1.095,1.403  c0.533,0.492,1.249,0.983,2.147,1.502c0.912,0.505,2.063,1.053,3.466,1.642c3.186,1.305,6.034,2.666,8.546,4.069  c2.526,1.404,4.659,2.961,6.413,4.673c1.754,1.712,3.087,3.621,4.014,5.74c0.912,2.119,1.375,4.561,1.375,7.311  c0,2.863-0.547,5.487-1.642,7.873c-1.095,2.372-2.638,4.42-4.617,6.133c-1.993,1.711-4.365,3.045-7.101,3.985  c-2.75,0.955-5.753,1.432-9.038,1.432c-2.54,0-4.954-0.309-7.255-0.94c-2.302-0.631-4.407-1.516-6.343-2.638  c-1.922-1.137-3.635-2.47-5.122-4.028S177.614,56.949,176.646,55.11z M288.882,5.642c0-1.249,0.618-1.881,1.853-1.881h12.911  c0.295,0,0.561-0.014,0.786-0.028c0.238-0.014,0.463,0.028,0.659,0.112c0.21,0.084,0.421,0.267,0.646,0.519  c0.21,0.267,0.478,0.688,0.758,1.277l14.945,25.134l2.723,5.656l-0.505-5.656V5.642c0-0.491,0.154-0.94,0.463-1.319  s0.771-0.562,1.375-0.562h12.658c0.351,0,0.729,0.112,1.137,0.323c0.407,0.225,0.617,0.715,0.617,1.474v58.898  c0,1.221-0.673,1.838-2.021,1.838h-10.68c-0.617,0-1.179-0.154-1.67-0.463c-0.505-0.309-0.912-0.771-1.234-1.375l-17.233-27.983  l-2.512-4.828l0.575,4.786v28.025c0,1.221-0.617,1.838-1.839,1.838h-12.573c-1.221,0-1.839-0.617-1.839-1.838V5.642z"></path>	<path fill="#37B0E3" d="M286.367,94.214c0-0.37,0.176-0.551,0.524-0.551h2.904c0.074,0,0.141-0.004,0.202-0.009  c0.058-0.004,0.114,0.009,0.172,0.035c0.053,0.026,0.11,0.075,0.172,0.146c0.058,0.066,0.123,0.177,0.198,0.322l6.681,10.496  l0.811,1.652l-0.137-1.652V94.214c0-0.158,0.04-0.286,0.124-0.392c0.083-0.106,0.211-0.159,0.383-0.159h2.834  c0.119,0,0.229,0.035,0.335,0.102c0.105,0.07,0.158,0.212,0.158,0.419v18.578c0,0.356-0.181,0.538-0.546,0.538h-2.402  c-0.146,0-0.282-0.036-0.41-0.11c-0.127-0.075-0.242-0.199-0.343-0.37l-7.236-11.197l-0.727-1.38l0.163,1.38v11.14  c0,0.356-0.172,0.538-0.512,0.538h-2.824c-0.349,0-0.524-0.182-0.524-0.538V94.214z M268.844,105.91  c0,0.617,0.106,1.182,0.318,1.701c0.211,0.521,0.502,0.97,0.872,1.344c0.37,0.375,0.815,0.67,1.331,0.882  c0.52,0.211,1.079,0.317,1.683,0.317c0.604,0,1.168-0.106,1.684-0.317c0.516-0.212,0.961-0.507,1.331-0.882  c0.37-0.374,0.661-0.823,0.872-1.335c0.212-0.516,0.318-1.079,0.318-1.696v-4.892c0-0.608-0.106-1.167-0.318-1.688  c-0.211-0.521-0.502-0.97-0.872-1.344c-0.37-0.375-0.815-0.67-1.331-0.882c-0.516-0.211-1.079-0.317-1.684-0.317  c-0.604,0-1.163,0.106-1.683,0.317c-0.516,0.212-0.961,0.507-1.331,0.882c-0.37,0.374-0.661,0.823-0.872,1.344  c-0.212,0.521-0.318,1.079-0.318,1.688V105.91z M264.984,100.786c0-1.111,0.207-2.124,0.625-3.045  c0.419-0.926,0.987-1.72,1.706-2.385s1.569-1.181,2.552-1.547c0.978-0.365,2.035-0.551,3.159-0.551  c1.128,0,2.186,0.186,3.164,0.551c0.982,0.366,1.833,0.882,2.561,1.547c0.723,0.665,1.291,1.459,1.709,2.385  c0.419,0.921,0.626,1.934,0.626,3.045v5.411c0,1.11-0.207,2.123-0.626,3.04c-0.418,0.917-0.986,1.705-1.709,2.366  c-0.728,0.661-1.578,1.177-2.552,1.543c-0.979,0.365-2.031,0.551-3.155,0.551c-1.128,0-2.186-0.186-3.164-0.551  c-0.982-0.366-1.833-0.882-2.56-1.543c-0.723-0.661-1.291-1.449-1.71-2.366c-0.418-0.917-0.625-1.93-0.625-3.04V100.786z   M255.861,94.206c0-0.365,0.176-0.551,0.524-0.551h2.895c0.177,0,0.292,0.049,0.353,0.146c0.058,0.098,0.089,0.229,0.089,0.405  v18.557c0,0.177-0.031,0.309-0.089,0.401c-0.061,0.092-0.176,0.137-0.353,0.137h-2.895c-0.348,0-0.524-0.182-0.524-0.538V94.206z   M237.726,94.179c0-0.348,0.163-0.524,0.494-0.524h12.841c0.339,0,0.511,0.177,0.511,0.524v2.627c0,0.348-0.171,0.524-0.511,0.524  h-4.504v15.432c0,0.356-0.163,0.538-0.493,0.538h-2.887c-0.304,0-0.454-0.182-0.454-0.538V97.331h-4.503  c-0.331,0-0.494-0.181-0.494-0.538V94.179z M226.072,106.262h4.887l-2.076-6.87l-0.375-1.956l-0.357,1.956L226.072,106.262z   M237.023,112.736c0.136,0.374,0.022,0.564-0.348,0.564h-3.054c-0.15,0-0.282-0.036-0.401-0.11  c-0.119-0.075-0.207-0.203-0.26-0.388l-0.895-2.944h-7.081l-0.895,2.944c-0.044,0.185-0.128,0.312-0.247,0.388  c-0.119,0.074-0.251,0.11-0.401,0.11h-3.071c-0.154,0-0.269-0.049-0.335-0.146c-0.07-0.098-0.07-0.234-0.009-0.419l6.293-18.592  c0.11-0.339,0.326-0.511,0.648-0.511h3.115c0.317,0,0.538,0.172,0.661,0.511L237.023,112.736z M206.937,97.331v5.578h3.226  c0.366,0,0.709-0.065,1.027-0.193s0.591-0.309,0.828-0.538c0.234-0.229,0.415-0.493,0.542-0.789  c0.128-0.299,0.194-0.625,0.194-0.974v-0.537c0-0.357-0.066-0.692-0.194-0.996c-0.127-0.309-0.308-0.577-0.537-0.807  c-0.229-0.229-0.502-0.409-0.82-0.546c-0.317-0.133-0.666-0.198-1.04-0.198H206.937z M203.183,94.206  c0-0.365,0.176-0.551,0.524-0.551h6.852c0.855,0,1.648,0.154,2.38,0.463c0.736,0.309,1.375,0.723,1.913,1.247  c0.542,0.521,0.969,1.133,1.273,1.829c0.308,0.7,0.463,1.44,0.463,2.221v1.115c0,0.523-0.08,1.03-0.234,1.528  c-0.159,0.498-0.37,0.966-0.648,1.411c-0.273,0.449-0.604,0.854-0.982,1.229c-0.384,0.371-0.798,0.692-1.247,0.956l0.538,0.812  l2.732,6.271c0.057,0.128,0.057,0.255,0,0.379c-0.053,0.123-0.158,0.186-0.317,0.186h-3.424c-0.149,0-0.26-0.031-0.339-0.098  c-0.075-0.062-0.154-0.189-0.225-0.37l-2.547-6.354h-2.957v6.284c0,0.177-0.036,0.309-0.102,0.401  c-0.07,0.092-0.193,0.137-0.366,0.137h-2.763c-0.348,0-0.524-0.182-0.524-0.538V94.206z M185.047,94.179  c0-0.348,0.163-0.524,0.494-0.524h12.841c0.339,0,0.511,0.177,0.511,0.524v2.627c0,0.348-0.172,0.524-0.511,0.524h-4.503v15.432  c0,0.356-0.163,0.538-0.494,0.538h-2.886c-0.304,0-0.454-0.182-0.454-0.538V97.331h-4.503c-0.331,0-0.494-0.181-0.494-0.538V94.179  z M172.76,94.206c0-0.365,0.176-0.551,0.524-0.551h2.829c0.339,0,0.507,0.186,0.507,0.551v15.419h6.927  c0.339,0,0.511,0.172,0.511,0.512v2.64c0,0.348-0.171,0.524-0.511,0.524h-10.263c-0.348,0-0.524-0.182-0.524-0.538V94.206z   M162.499,94.206c0-0.365,0.176-0.551,0.524-0.551h2.895c0.177,0,0.292,0.049,0.353,0.146c0.057,0.098,0.088,0.229,0.088,0.405  v18.557c0,0.177-0.031,0.309-0.088,0.401c-0.062,0.092-0.176,0.137-0.353,0.137h-2.895c-0.348,0-0.524-0.182-0.524-0.538V94.206z   M145.188,94.206c0-0.365,0.176-0.551,0.524-0.551h11.338c0.339,0,0.507,0.177,0.507,0.524v2.627c0,0.348-0.167,0.524-0.507,0.524  h-8.002v4.494h6.196c0.159,0,0.286,0.044,0.392,0.133c0.106,0.088,0.159,0.22,0.159,0.405v2.613c0,0.348-0.181,0.524-0.551,0.524  h-6.196v7.262c0,0.356-0.172,0.538-0.511,0.538h-2.825c-0.348,0-0.524-0.182-0.524-0.538V94.206z M132.561,107.253  c0,0.661-0.097,1.278-0.295,1.852c-0.199,0.573-0.467,1.102-0.807,1.582c-0.339,0.484-0.74,0.912-1.198,1.286  c-0.458,0.38-0.948,0.692-1.468,0.952c-0.52,0.256-1.058,0.454-1.613,0.591s-1.106,0.207-1.648,0.207  c-1.128,0-2.177-0.186-3.146-0.551c-0.969-0.37-1.811-0.882-2.529-1.543c-0.718-0.66-1.278-1.454-1.679-2.37  c-0.406-0.922-0.608-1.935-0.608-3.045v-5.323c0-1.11,0.203-2.133,0.608-3.072c0.4-0.938,0.965-1.74,1.679-2.419  c0.718-0.674,1.56-1.198,2.529-1.577c0.97-0.375,2.019-0.564,3.146-0.564c0.692,0,1.357,0.079,1.996,0.243  c0.643,0.158,1.247,0.405,1.811,0.735c0.564,0.331,1.08,0.745,1.542,1.238c0.467,0.498,0.873,1.08,1.221,1.754  c0.119,0.211,0.167,0.393,0.146,0.551c-0.027,0.154-0.097,0.26-0.216,0.317l-2.049,1.005c-0.128,0.053-0.273,0.083-0.437,0.088  c-0.158,0.004-0.282-0.079-0.366-0.256c-0.366-0.705-0.846-1.233-1.437-1.582c-0.59-0.348-1.26-0.524-2.005-0.524  c-0.604,0-1.168,0.102-1.692,0.309c-0.525,0.207-0.983,0.498-1.371,0.877c-0.392,0.375-0.696,0.824-0.917,1.344  c-0.22,0.521-0.331,1.084-0.331,1.701v4.852c0,0.626,0.11,1.199,0.326,1.724s0.507,0.969,0.882,1.344  c0.37,0.37,0.806,0.661,1.309,0.868s1.031,0.309,1.595,0.309c0.524,0,1.004-0.08,1.441-0.242c0.437-0.159,0.811-0.384,1.124-0.666  c0.313-0.286,0.555-0.625,0.732-1.022c0.171-0.396,0.26-0.828,0.26-1.295v-0.317h-2.437c-0.331,0-0.498-0.168-0.498-0.507v-2.517  c0-0.348,0.167-0.52,0.498-0.52h5.376c0.348,0,0.524,0.181,0.524,0.537V107.253z M96.932,94.214c0-0.37,0.176-0.551,0.524-0.551  h2.904c0.075,0,0.141-0.004,0.203-0.009c0.057-0.004,0.115,0.009,0.172,0.035c0.053,0.026,0.11,0.075,0.172,0.146  c0.058,0.066,0.123,0.177,0.198,0.322l6.681,10.496l0.811,1.652l-0.137-1.652V94.214c0-0.158,0.04-0.286,0.124-0.392  c0.084-0.106,0.211-0.159,0.383-0.159h2.833c0.119,0,0.229,0.035,0.335,0.102c0.106,0.07,0.159,0.212,0.159,0.419v18.578  c0,0.356-0.181,0.538-0.546,0.538h-2.402c-0.146,0-0.282-0.036-0.41-0.11c-0.128-0.075-0.243-0.199-0.344-0.37l-7.236-11.197  l-0.727-1.38l0.163,1.38v11.14c0,0.356-0.172,0.538-0.511,0.538h-2.825c-0.348,0-0.524-0.182-0.524-0.538V94.214z M86.671,94.206  c0-0.365,0.176-0.551,0.524-0.551h2.895c0.176,0,0.291,0.049,0.353,0.146c0.057,0.098,0.088,0.229,0.088,0.405v18.557  c0,0.177-0.031,0.309-0.088,0.401c-0.062,0.092-0.176,0.137-0.353,0.137h-2.895c-0.348,0-0.524-0.182-0.524-0.538V94.206z   M76.098,112.789c-0.119,0.339-0.339,0.512-0.661,0.512h-3.111c-0.321,0-0.538-0.173-0.647-0.512l-6.033-18.587  c-0.075-0.186-0.075-0.326-0.009-0.423c0.071-0.098,0.185-0.146,0.353-0.146h3.071c0.137,0,0.264,0.039,0.383,0.11  c0.119,0.074,0.207,0.202,0.264,0.388l3.896,13.413l0.265,1.445l0.273-1.445l3.926-13.413c0.044-0.186,0.128-0.313,0.247-0.388  c0.119-0.071,0.251-0.11,0.396-0.11h3.071c0.167,0,0.282,0.048,0.348,0.146c0.062,0.097,0.062,0.237,0,0.423L76.098,112.789z   M57.227,94.206c0-0.365,0.176-0.551,0.524-0.551h2.895c0.177,0,0.291,0.049,0.353,0.146c0.058,0.098,0.088,0.229,0.088,0.405  v18.557c0,0.177-0.031,0.309-0.088,0.401c-0.062,0.092-0.176,0.137-0.353,0.137h-2.895c-0.348,0-0.524-0.182-0.524-0.538V94.206z   M40.837,94.206c0-0.365,0.176-0.551,0.524-0.551h2.829c0.339,0,0.507,0.186,0.507,0.551v15.419h6.927  c0.339,0,0.511,0.172,0.511,0.512v2.64c0,0.348-0.172,0.524-0.511,0.524H41.361c-0.348,0-0.524-0.182-0.524-0.538V94.206z"></path>	<polygon fill-rule="evenodd" clip-rule="evenodd" fill="#204289" points="374.642,44.794 374.642,66.294 455.297,122.452   455.312,122.452 535.966,66.294 535.966,44.794 455.305,76.734  "></polygon></g></svg>